<svg width="35" height="22" viewBox="0 0 35 22" fill="none" xmlns="http://www.w3.org/2000/svg">
<g clip-path="url(#clip0_58_268)">
<path d="M30.4934 9.60065L7.31771 9.60065L12.4093 4.53481C13.1116 3.83608 13.1116 2.78797 12.4093 2.08924C11.7071 1.3905 10.6536 1.3905 9.95132 2.08924L1.87493 10.1247C1.17263 10.8234 1.17263 11.8715 1.87493 12.5703L9.95132 20.6057C10.6536 21.3045 11.7071 21.3045 12.4093 20.6057C13.1116 19.907 13.1116 18.8589 12.4093 18.1602L7.31771 13.0943L30.4934 13.0943C31.3713 13.0943 32.2492 12.3956 32.2492 11.3475C32.2492 10.2994 31.3713 9.60065 30.4934 9.60065Z" fill="white"/>
</g>
<defs>
<clipPath id="clip0_58_268">
<rect width="34.6091" height="21.9124" fill="white"/>
</clipPath>
</defs>
</svg>
